<?xml version="1.0" encoding="UTF-8" standalone="no"?>
<!-- Created with Inkscape (http://www.inkscape.org/) -->

<svg
   xmlns:dc="http://purl.org/dc/elements/1.1/"
   xmlns:cc="http://creativecommons.org/ns#"
   xmlns:rdf="http://www.w3.org/1999/02/22-rdf-syntax-ns#"
   xmlns:svg="http://www.w3.org/2000/svg"
   xmlns="http://www.w3.org/2000/svg"
   xmlns:sodipodi="http://sodipodi.sourceforge.net/DTD/sodipodi-0.dtd"
   xmlns:inkscape="http://www.inkscape.org/namespaces/inkscape"
   width="210mm"
   height="297mm"
   viewBox="0 0 210 297"
   version="1.1"
   id="svg4142"
   inkscape:version="0.92.3 (2405546, 2018-03-11)"
   sodipodi:docname="Logo.svg">
  <defs
     id="defs4136">
    <inkscape:perspective
       sodipodi:type="inkscape:persp3d"
       inkscape:vp_x="0 : 148.5 : 1"
       inkscape:vp_y="0 : 1000 : 0"
       inkscape:vp_z="210 : 148.5 : 1"
       inkscape:persp3d-origin="105 : 99 : 1"
       id="perspective4214" />
  </defs>
  <sodipodi:namedview
     id="base"
     pagecolor="#ffffff"
     bordercolor="#666666"
     borderopacity="1.0"
     inkscape:pageopacity="0.0"
     inkscape:pageshadow="2"
     inkscape:zoom="0.35"
     inkscape:cx="400"
     inkscape:cy="560"
     inkscape:document-units="mm"
     inkscape:current-layer="layer1"
     showgrid="false"
     inkscape:window-width="1600"
     inkscape:window-height="837"
     inkscape:window-x="-8"
     inkscape:window-y="-8"
     inkscape:window-maximized="1" />
  <metadata
     id="metadata4139">
    <rdf:RDF>
      <cc:Work
         rdf:about="">
        <dc:format>image/svg+xml</dc:format>
        <dc:type
           rdf:resource="http://purl.org/dc/dcmitype/StillImage" />
        <dc:title></dc:title>
      </cc:Work>
    </rdf:RDF>
  </metadata>
  <g
     inkscape:label="Capa 1"
     inkscape:groupmode="layer"
     id="layer1">
    <g
       sodipodi:type="inkscape:box3d"
       id="g4216"
       style="fill:#000000"
       inkscape:perspectiveID="#perspective4214"
       inkscape:corner0="1.7779528 : 0.25647404 : 0 : 1"
       inkscape:corner7="0.093682213 : -0.14019527 : 0.25 : 1">
      <path
         sodipodi:type="inkscape:box3dside"
         id="path4218"
         style="fill:#353564;fill-rule:evenodd;stroke:none;stroke-linejoin:round"
         inkscape:box3dsidetype="6"
         d="M 37.797619,73.994046 V 216.786 l 14.217724,-5.63797 V 80.145559 Z"
         points="37.797619,216.786 52.015343,211.14803 52.015343,80.145559 37.797619,73.994046 " />
      <path
         sodipodi:type="inkscape:box3dside"
         id="path4226"
         style="fill:#afafde;fill-rule:evenodd;stroke:none;stroke-linejoin:round"
         inkscape:box3dsidetype="13"
         d="M 37.797619,216.786 96.005952,321.94642 117.21522,289.67569 52.015343,211.14803 Z"
         points="96.005952,321.94642 117.21522,289.67569 52.015343,211.14803 37.797619,216.786 " />
      <path
         sodipodi:type="inkscape:box3dside"
         id="path4228"
         style="fill:#e9e9ff;fill-rule:evenodd;stroke:none;stroke-linejoin:round"
         inkscape:box3dsidetype="11"
         d="M 52.015343,80.145559 117.21522,-5.5349545 V 289.67569 L 52.015343,211.14803 Z"
         points="117.21522,-5.5349545 117.21522,289.67569 52.015343,211.14803 52.015343,80.145559 " />
      <path
         sodipodi:type="inkscape:box3dside"
         id="path4220"
         style="fill:#4d4d9f;fill-rule:evenodd;stroke:none;stroke-linejoin:round"
         inkscape:box3dsidetype="5"
         d="M 37.797619,73.994046 96.005952,-40.745127 117.21522,-5.5349545 52.015343,80.145559 Z"
         points="96.005952,-40.745127 117.21522,-5.5349545 52.015343,80.145559 37.797619,73.994046 " />
      <path
         sodipodi:type="inkscape:box3dside"
         id="path4224"
         style="fill:#d7d7ff;fill-rule:evenodd;stroke:none;stroke-linejoin:round"
         inkscape:box3dsidetype="14"
         d="M 96.005952,-40.745127 V 321.94642 L 117.21522,289.67569 V -5.5349545 Z"
         points="96.005952,321.94642 117.21522,289.67569 117.21522,-5.5349545 96.005952,-40.745127 " />
      <path
         sodipodi:type="inkscape:box3dside"
         id="path4222"
         style="fill:#8686bf;fill-rule:evenodd;stroke:none;stroke-linejoin:round"
         inkscape:box3dsidetype="3"
         d="M 37.797619,73.994046 96.005952,-40.745127 V 321.94642 L 37.797619,216.786 Z"
         points="96.005952,-40.745127 96.005952,321.94642 37.797619,216.786 37.797619,73.994046 " />
    </g>
    <g
       sodipodi:type="inkscape:box3d"
       id="g4230"
       style="fill:#000000"
       inkscape:perspectiveID="#perspective4214"
       inkscape:corner0="-0.10421185 : 0.18748269 : 0 : 1"
       inkscape:corner7="-0.28403278 : -0.07251701 : 0.25 : 1">
      <path
         sodipodi:type="inkscape:box3dside"
         id="path4232"
         style="fill:#353564;fill-rule:evenodd;stroke:none;stroke-linejoin:round"
         inkscape:box3dsidetype="6"
         d="M 117.21522,-5.5349494 V 284.7119 l 20.24475,-29.72013 V 28.074002 Z"
         points="117.21522,284.7119 137.45997,254.99177 137.45997,28.074002 117.21522,-5.5349494 " />
      <path
         sodipodi:type="inkscape:box3dside"
         id="path4240"
         style="fill:#afafde;fill-rule:evenodd;stroke:none;stroke-linejoin:round"
         inkscape:box3dsidetype="13"
         d="m 117.21522,284.7119 29.43954,34.21072 16.39425,-44.10673 -25.58904,-19.82412 z"
         points="146.65476,318.92262 163.04901,274.81589 137.45997,254.99177 117.21522,284.7119 " />
      <path
         sodipodi:type="inkscape:box3dside"
         id="path4242"
         style="fill:#e9e9ff;fill-rule:evenodd;stroke:none;stroke-linejoin:round"
         inkscape:box3dsidetype="11"
         d="M 137.45997,28.074002 163.04901,5.6559374 V 274.81589 l -25.58904,-19.82412 z"
         points="163.04901,5.6559374 163.04901,274.81589 137.45997,254.99177 137.45997,28.074002 " />
      <path
         sodipodi:type="inkscape:box3dside"
         id="path4234"
         style="fill:#4d4d9f;fill-rule:evenodd;stroke:none;stroke-linejoin:round"
         inkscape:box3dsidetype="5"
         d="M 117.21522,-5.5349494 146.65476,-44.222068 163.04901,5.6559374 137.45997,28.074002 Z"
         points="146.65476,-44.222068 163.04901,5.6559374 137.45997,28.074002 117.21522,-5.5349494 " />
      <path
         sodipodi:type="inkscape:box3dside"
         id="path4238"
         style="fill:#d7d7ff;fill-rule:evenodd;stroke:none;stroke-linejoin:round"
         inkscape:box3dsidetype="14"
         d="M 146.65476,-44.222068 V 318.92262 l 16.39425,-44.10673 V 5.6559374 Z"
         points="146.65476,318.92262 163.04901,274.81589 163.04901,5.6559374 146.65476,-44.222068 " />
      <path
         sodipodi:type="inkscape:box3dside"
         id="path4236"
         style="fill:#8686bf;fill-rule:evenodd;stroke:none;stroke-linejoin:round"
         inkscape:box3dsidetype="3"
         d="M 117.21522,-5.5349494 146.65476,-44.222068 V 318.92262 L 117.21522,284.7119 Z"
         points="146.65476,-44.222068 146.65476,318.92262 117.21522,284.7119 117.21522,-5.5349494 " />
    </g>
    <path
       style="fill:#000000;stroke-width:0.26458332"
       id="path4254"
       d="m 42.322421,199.60865 c -3.28936,-0.7409 -6.09338,-2.83929 -8.945848,-4.55066 -2.644735,-1.68753 -4.433832,-4.07381 -5.976498,-6.75231 -1.654574,-3.87056 -3.264834,-7.77054 -4.694941,-11.73084 -1.550897,-3.35614 -2.533871,-6.84198 -3.082375,-10.48584 -0.5808,-3.82957 -0.825723,-7.69527 -0.98182,-11.56181 -0.06606,-3.67968 -0.234327,-7.36763 -0.06478,-11.04572 0.0338,-3.24451 0.69681,-6.34973 1.833904,-9.37154 1.225254,-2.90314 3.208149,-5.40043 5.430012,-7.60346 4.768172,-3.57359 -0.790606,0.51657 12.023928,-7.18779 2.647606,-1.5918 -10.712616,6.1593 -8.040864,4.60837 4.177517,-2.42501 9.189947,-5.84118 14.062474,-7.76555 3.629292,-1.58238 7.513669,-2.31375 11.4143,-2.83102 2.747309,-0.33595 5.50609,-0.43459 8.247898,-0.056 5.027022,0.62119 9.617392,2.5762 14.067353,4.88598 1.95743,1.00967 3.971753,2.13113 5.554067,3.69673 0.549556,0.54374 1.446501,1.64029 1.943831,2.23302 1.874755,3.37698 4.369347,6.32648 6.421387,9.58344 1.67736,2.70398 3.242834,5.47196 4.73729,8.27926 1.07515,2.01798 1.441403,4.25101 1.608963,6.50109 0.131599,2.67326 -0.268303,5.33735 -0.457189,8.00038 -0.08488,2.67134 -0.257625,5.32361 -0.64914,7.96837 -0.529828,4.19173 -1.916718,8.20009 -2.898899,12.29447 -0.428773,3.23401 -1.424424,6.19097 -3.160884,8.94063 -0.979792,1.44512 -2.42156,2.37202 -3.90666,3.22613 -3.4821,2.00261 -6.969988,3.99515 -10.454984,5.99273 -1.674715,1.06565 -3.579424,1.58793 -5.429859,2.23389 -3.267022,1.11017 -6.806456,0.89533 -10.211744,0.9621 -4.471191,0.0567 -8.942448,0.12253 -13.413983,0.14495 -2.292229,0.0212 -4.584478,0.0118 -6.876738,0.0112 -0.344691,5.3e-4 -0.68938,0.001 -1.034071,0.002 0,0 9.037592,-6.565 9.037592,-6.565 v 0 c 0.342694,0.001 0.685387,0.002 1.028078,0.003 2.270782,0.005 4.54151,0.006 6.812175,0.0348 4.415377,0.0263 8.831754,0.0694 13.246105,-0.0622 3.440821,-0.12961 6.962248,-0.1232 10.21943,-1.38623 1.848959,-0.62737 3.646324,-1.38057 5.327192,-2.38379 -2.890022,1.67734 -5.777288,3.35944 -8.670072,5.03201 -0.298914,0.17283 0.589063,-0.36054 0.888357,-0.53271 0.818964,-0.47111 1.714238,-0.90283 2.4493,-1.50661 0.281292,-0.23105 0.522436,-0.50705 0.783654,-0.76058 1.937107,-2.56229 3.052612,-5.43155 3.471413,-8.62756 0.929684,-4.05988 2.37364,-8.0135 2.839719,-12.16696 0.401961,-2.61372 0.577485,-5.23671 0.667055,-7.87845 0.180996,-2.61183 0.55014,-5.22461 0.489209,-7.84243 -0.135366,-2.10143 -0.388781,-4.20284 -1.370788,-6.10342 -1.457248,-2.79471 -2.902471,-5.59543 -4.559988,-8.28088 -2.037275,-3.20934 -4.547086,-6.08634 -6.446519,-9.39185 -2.006984,-2.35777 -4.312434,-4.31845 -7.147298,-5.64237 -4.376841,-2.27978 -8.934223,-4.10059 -13.911734,-4.48916 -2.70456,-0.1783 -5.414264,-0.0593 -8.104854,0.27837 -3.85804,0.55014 -7.661508,1.41092 -11.217608,3.05782 -0.528217,0.24828 -1.06494,0.47922 -1.584653,0.74485 -0.491599,0.25125 -1.923481,1.08465 -1.447528,0.80489 2.645805,-1.55517 10.603185,-6.18651 7.957408,-4.6313 -3.627258,2.13212 -7.272004,4.23437 -10.901863,6.36207 -2.284018,1.33881 12.643609,-7.36639 6.86185,-3.99967 -2.288691,2.00778 -4.264044,4.40635 -5.623595,7.14209 -0.360304,0.90705 -0.793178,1.78842 -1.082132,2.72065 -0.638207,2.05899 -0.782487,4.21946 -0.9432,6.3531 -0.210624,3.65414 -0.08061,7.31683 -0.01365,10.97424 0.138168,3.82681 0.346708,7.6567 0.973434,11.44034 0.465042,3.58737 1.408682,7.01932 2.914626,10.3211 1.377882,3.90446 2.968623,7.73695 4.641369,11.52349 1.486876,2.48615 3.233809,4.69434 5.700776,6.28328 2.740636,1.70385 5.518126,3.71667 8.810982,4.0717 0,0 -9.158359,6.48149 -9.158359,6.48149 z"
       inkscape:connector-curvature="0" />
    <path
       style="fill:#000000;stroke-width:0.26458332"
       id="path4256"
       d="m 175.10118,190.76157 c -5.34116,-2.77868 -9.94603,-6.69067 -14.38085,-10.70972 -3.17902,-2.50233 -5.67216,-5.67442 -8.41703,-8.60527 -1.10424,-1.17904 -2.25211,-2.31645 -3.37502,-3.47772 -0.54889,-0.64068 -1.14188,-1.24606 -1.64667,-1.92203 -1.77656,-2.37903 -3.19889,-5.05933 -4.73329,-7.5933 -1.08753,-1.79598 -2.20238,-3.5753 -3.29141,-5.37037 -2.54682,-3.93803 -4.32688,-8.20147 -5.60734,-12.69115 -0.93761,-2.85298 -1.83502,-5.69066 -2.23802,-8.67129 -0.11896,-1.94984 -0.41667,-3.91557 -0.13903,-5.8658 0.11711,-0.82265 0.49746,-2.32728 0.68721,-3.12107 0.66586,-3.49088 2.12977,-6.70683 3.54616,-9.93889 1.25922,-2.81074 2.61038,-5.66987 4.95044,-7.76214 0.44722,-0.39987 0.9535,-0.72833 1.43025,-1.09249 7.39734,-4.81717 12.39779,-7.779159 20.50894,-9.255238 3.19343,-0.474797 6.42262,-0.523369 9.64383,-0.555802 2.73338,0.03325 5.1777,0.949087 7.25664,2.705412 2.7442,3.527078 5.23864,7.260198 7.63277,11.032778 0.50641,0.78393 1.00236,1.57472 1.51922,2.3518 0.95095,1.42976 2.17027,3.10206 3.07292,4.56661 1.30542,2.11805 2.39042,4.36658 3.51191,6.58406 1.77115,3.6648 3.07996,7.5061 4.27217,11.38892 0.78155,2.67051 1.82547,5.23486 2.45851,7.95123 0.50223,3.01531 0.45879,6.09777 0.48188,9.14691 -0.19644,3.90611 -0.50119,7.80424 -0.64549,11.71341 -0.11037,4.75307 -0.15579,9.50264 -0.57343,14.24123 -0.13856,3.29139 -0.89807,5.34177 -2.65178,8.03096 -3.15124,4.08974 -8.1284,7.13249 -13.26264,7.84299 -1.28328,0.17759 -2.44757,0.22592 -3.74436,0.30893 -4.77005,0.16796 -9.54474,0.14707 -14.31719,0.1715 -1.06574,-0.15121 -2.1572,0.14289 -3.22434,0.0149 -1.79099,-0.21483 -3.64257,-1.02435 -5.33747,-1.61475 -2.08748,-0.4758 -3.7897,-1.65864 -5.44558,-2.95124 0,0 9.42386,-5.94755 9.42386,-5.94755 v 0 c 1.59468,1.19551 3.26751,2.17746 5.22573,2.66082 2.7143,0.8949 5.35874,1.6481 8.26334,1.3695 4.75574,0.0384 9.51882,0.0708 14.26654,-0.24986 1.29763,-0.13342 2.4429,-0.1975 3.70608,-0.52212 0.44669,-0.11479 1.69374,-0.70781 1.30509,-0.45949 -16.18065,10.33831 -9.56453,6.44898 -7.1044,3.81919 1.88353,-2.40276 2.88687,-4.45426 3.06817,-7.58932 0.53417,-4.70765 0.54511,-9.43563 0.58797,-14.16858 0.13123,-3.88501 0.3543,-7.76234 0.60802,-11.64109 -0.0236,-2.96868 2.6e-4,-5.96062 -0.45254,-8.90169 -0.55607,-2.71822 -1.60775,-5.25816 -2.32288,-7.92976 -1.12006,-3.84021 -2.42033,-7.62832 -4.09889,-11.26454 -1.09448,-2.18303 -2.12898,-4.41384 -3.40037,-6.50249 -0.80037,-1.31486 -2.21349,-3.30826 -3.06372,-4.57811 -0.52082,-0.77785 -1.02793,-1.56479 -1.5419,-2.34719 -2.36968,-3.65102 -4.78766,-7.32639 -7.6624,-10.60016 -2.00023,-1.52596 -4.27334,-2.15683 -6.79118,-2.09522 -3.16622,0.0318 -6.34521,0.11948 -9.47036,0.67823 -1.89138,0.39257 -3.74388,0.82606 -5.56209,1.49386 -3.62026,1.32964 -10.90332,5.65759 4.14548,-2.93375 -0.50032,0.29926 -1.03593,0.54619 -1.50096,0.89779 -2.46066,1.86047 -3.9068,4.63165 -5.12618,7.38387 -1.37301,3.19148 -2.9702,6.30426 -3.60577,9.7505 -0.2337,0.99604 -0.52463,1.97939 -0.71945,2.98376 -0.361,1.861 -0.0902,3.75411 0.03,5.62613 0.35965,2.9374 1.16158,5.76451 2.10982,8.56564 1.15642,4.42561 2.78968,8.65915 5.26373,12.53684 4.1502,6.89326 -0.99354,-1.61822 3.29528,5.37475 1.51657,2.47278 2.94046,5.07679 4.72057,7.37738 0.50655,0.65467 1.09413,1.24243 1.64119,1.86364 1.11743,1.18016 2.26254,2.33446 3.3586,3.5345 2.67474,2.92848 5.08618,6.1074 8.23293,8.5775 4.426,3.96626 9.04345,7.88134 14.56319,10.24198 0,0 -9.33437,6.14168 -9.33437,6.14168 z"
       inkscape:connector-curvature="0" />
    <path
       style="fill:#000000;stroke-width:0.26458332"
       id="path4258"
       d="m 58.507706,115.03344 c 0.229505,-6.28284 0.196659,-12.5726 0.237633,-18.858778 -0.194326,-9.074198 0.516562,-18.124 0.951492,-27.18055 0.257252,-7.569798 0.453059,-15.139255 0.777748,-22.706658 0.266573,-2.300661 -0.340016,-5.094367 1.077005,-7.146851 0.345146,-0.499927 0.744098,-0.999815 1.265624,-1.311367 3.8546,-2.302685 7.867358,-4.329653 11.801038,-6.494479 1.206259,-0.252412 2.400342,-0.572344 3.618783,-0.757237 6.804324,-1.032534 13.815004,-1.112981 20.675748,-1.287942 6.318583,-0.161139 14.440043,-0.230227 20.711283,-0.30181 10.66795,-0.106132 9.89107,-0.0905 20.11275,-0.221141 5.66732,-0.07243 13.0871,-0.872715 18.4296,1.666324 1.18341,0.56242 2.13044,1.525892 3.19566,2.288839 0.71105,1.008484 1.55749,1.934012 2.13314,3.025455 1.16342,2.205826 2.14119,6.059046 2.72065,8.381553 1.41889,5.686941 2.42356,11.473283 3.54021,17.224025 2.265,11.89169 3.18847,23.980235 4.02743,36.039793 0,0 -9.41527,4.860454 -9.41527,4.860454 v 0 c -0.44607,-12.079079 -1.33449,-24.169267 -3.69344,-36.04582 -1.16239,-5.687994 -2.25132,-11.406499 -3.74754,-17.019717 -0.56346,-2.113854 -1.62469,-5.932469 -2.70469,-7.976624 -0.51984,-0.983914 -1.27507,-1.82414 -1.9126,-2.736212 -0.96499,-0.691996 -1.82372,-1.563621 -2.89495,-2.075992 -5.03661,-2.409021 -12.25213,-1.846503 -17.60639,-1.864773 -9.77269,-0.03334 -9.69012,-0.0011 -19.91557,0.08876 -8.28702,0.157705 -12.795322,0.193397 -20.989166,0.539448 -7.027645,0.296797 -14.270894,0.506939 -21.191257,1.926016 -1.237649,0.253791 -2.434185,0.67786 -3.651279,1.016789 2.336491,-1.470041 4.670481,-2.944061 7.009472,-4.410126 0.469624,-0.294359 -1.003372,0.50922 -1.401342,0.894985 -1.763157,1.709084 -1.14345,4.67723 -1.475685,6.813476 -0.521041,7.608218 -0.781515,15.223167 -1.069207,22.843156 -0.420484,9.023514 -1.094703,18.043766 -0.869926,27.082986 0.04072,6.205421 0.0057,12.414668 0.237632,18.616618 0,0 -9.984586,5.0874 -9.984586,5.0874 z"
       inkscape:connector-curvature="0" />
    <path
       style="fill:#000000;stroke-width:0.26458332"
       id="path4260"
       d="m 55.304123,159.14818 c -0.648348,-1.85576 -1.208291,-3.77694 -0.450715,-5.67105 7.19418,-4.45467 10.294212,-9.49969 11.762822,-2.19786 0.55735,1.86125 1.326433,3.67777 1.339167,5.6433 -1.490882,5.66975 -9.156477,7.10842 -14.309113,7.32145 -2.329199,0.19325 -3.17154,-0.84796 -3.834757,-2.92643 -0.431149,-2.05734 -0.387655,-4.1851 -0.401503,-6.27865 0.01831,-0.94832 -0.05569,-2.04123 0.422299,-2.91162 0.169614,-0.30886 0.347694,-0.65288 0.650301,-0.83341 9.987322,-5.95833 6.809195,-5.24155 12.018785,-6.17721 2.153152,-0.35655 4.297153,-0.28571 6.049528,1.10558 1.337419,1.43468 1.380366,3.31769 1.436997,5.17029 -0.106743,2.69439 0.389361,5.49774 -0.587359,8.06915 -4.960749,6.20713 -10.655749,6.92474 -17.254802,7.06197 -3.122437,0.1829 -4.348464,-1.08838 -5.24959,-3.91282 -0.512505,-2.46254 -0.579937,-4.98466 -0.334756,-7.48041 0.199335,-0.92648 0.372999,-2.39242 1.318562,-2.94049 10.076579,-5.84063 6.457156,-5.32569 11.173846,-5.85566 0.958458,-0.0409 2.23515,-0.10543 3.073001,0.49126 0.309295,0.22027 0.555984,0.51731 0.833974,0.77597 0,0 -9.468696,5.94721 -9.468696,5.94721 v 0 c -1.061842,-0.67804 -2.139231,-0.74013 -3.370848,-0.44476 -4.076144,1.25776 -0.551121,0.23211 8.209696,-5.03018 0.18284,-0.10983 -0.408959,0.13227 -0.593408,0.23937 -0.709631,0.41206 -0.989369,1.10246 -1.17348,1.86661 -0.321678,2.35514 -0.333785,4.72734 0.11955,7.07271 0.727667,2.51781 1.867968,2.87824 4.42704,2.71693 1.43851,-0.056 2.898399,-0.0863 4.318772,-0.34907 0.466558,-0.0863 1.77669,-0.60254 1.38266,-0.33822 -6.424396,4.30957 -11.752107,6.43819 -7.625927,4.7503 0.173993,-0.21691 0.400968,-0.40036 0.521978,-0.65072 0.943885,-1.95278 0.183496,-4.80936 0.366289,-6.89366 -0.0585,-1.44146 0.07231,-3.12935 -0.992441,-4.25012 -1.628675,-1.01214 -3.631134,-0.73925 -5.427557,-0.37652 -4.469159,1.3108 -1.00235,0.40753 7.211991,-4.72177 0.256461,-0.16014 -0.6047,0.14893 -0.842843,0.33522 -0.699246,0.547 -0.667097,1.7354 -0.655018,2.48986 -0.01297,1.99284 -0.06441,4.00743 0.273436,5.97839 0.506587,1.84659 1.187802,1.80524 3.009995,1.67205 0.939678,-0.0787 1.913512,-0.13384 2.81546,-0.43867 0.280877,-0.0949 1.062861,-0.521 0.812081,-0.36285 -12.775086,8.0565 -11.48062,7.19715 -8.371935,5.11281 0.413718,-1.83537 -0.673177,-3.65095 -1.164532,-5.37859 -0.09677,-0.53349 -0.161679,-1.03151 -0.344694,-1.54315 -0.08037,-0.22468 -0.169878,-0.66597 -0.397767,-0.59519 -0.07706,0.0239 -0.178956,0.25674 -0.109312,0.21599 3.123573,-1.8279 6.20251,-3.73102 9.303766,-5.59654 -1.573933,1.01778 -0.590995,3.30178 -0.08936,4.67365 0,0 -9.801585,5.44555 -9.801585,5.44555 z"
       inkscape:connector-curvature="0" />
    <path
       style="fill:#000000;stroke-width:0.26458332"
       id="path4262"
       d="m 166.26469,149.26125 c -3.11929,-1.74467 -6.46012,-3.1474 -9.83655,-4.32372 -2.941,-0.85314 -4.27317,-3.21568 -5.38724,-5.85287 -0.62202,-1.76314 -1.13389,-3.62913 -0.85336,-5.50424 2.19835,-4.75253 8.41217,-6.82332 13.47763,-6.97431 2.125,0.21726 2.93793,0.91137 3.82847,2.83563 0.9392,1.66038 1.6287,3.4044 1.98814,5.27566 0.19538,1.7108 0.513,3.48382 0.0763,5.17494 -3.37407,1.89906 -6.58564,4.12128 -10.12221,5.6972 -0.37023,0.16497 -0.64501,-0.49274 -0.94459,-0.76576 -1.62807,-1.48372 -2.90414,-3.24869 -4.04146,-5.11922 -0.90304,-1.80582 -0.50037,-0.90955 -1.21929,-2.68371 0,0 9.71172,-5.41179 9.71172,-5.41179 v 0 c 0.62671,1.68002 0.26912,0.83215 1.08482,2.53849 0.83612,1.38237 1.70367,2.66458 2.88236,3.78791 0.3037,0.28944 0.61318,0.58294 0.97371,0.79749 0.17202,0.10238 0.75283,0.02 0.58613,0.13079 -2.98523,1.98444 -6.12555,3.72505 -9.18832,5.58757 0.13868,-0.097 0.33427,-0.14275 0.41604,-0.2909 0.45408,-0.8227 -0.10186,-3.22055 -0.0924,-4.18594 -0.30102,-1.79261 -0.92508,-3.46277 -1.86213,-5.02732 -0.71838,-1.61085 -1.40012,-1.7091 -3.10559,-1.70084 -0.56701,0.0499 -0.99671,0.0694 -1.55396,0.19024 -0.24033,0.0521 -0.92056,0.32672 -0.7104,0.19902 2.80046,-1.70181 11.45752,-6.26988 8.38327,-5.1351 -0.15438,0.057 -0.27281,0.1841 -0.40921,0.27615 -0.79933,1.47514 0.0402,3.36812 0.41914,4.86476 1.03501,2.58759 2.02069,4.22448 4.82948,5.11364 3.42261,1.30329 6.79162,2.77464 10.07658,4.39127 0,0 -9.40704,6.11496 -9.40704,6.11496 z"
       inkscape:connector-curvature="0" />
    <path
       style="fill:#000000;stroke-width:0.26458332"
       id="path4264"
       d="m 86.679758,120.89109 c 3.872445,-2.32352 8.336579,-3.4692 12.68621,-4.54628 3.927012,-0.66477 7.808032,-1.88135 11.795452,-2.13384 0.39929,0.13003 0.84311,0.16541 1.19787,0.39009 1.67295,1.05953 2.8328,3.92596 3.58495,5.66774 1.08112,2.10642 2.0778,4.25573 3.05859,6.41053 2.05684,4.72339 4.32778,9.3253 6.80499,13.84207 1.54273,2.82995 2.98885,5.71247 4.21781,8.69361 0.41011,0.99483 0.95097,2.98894 1.8793,3.83198 0.33639,0.30548 0.83659,0.35499 1.25488,0.53248 0.48942,0.001 0.98341,0.0704 1.46826,0.004 0.90965,-0.12523 2.53381,-0.73496 3.38421,-1.01542 1.67989,-0.55402 3.36805,-1.05608 5.03296,-1.65446 0,0 -8.73735,6.80266 -8.73735,6.80266 v 0 c -2.28003,0.75372 -6.42932,2.38284 -8.71586,2.27319 -0.58554,-0.0281 -1.1464,-0.24566 -1.7196,-0.3685 -0.50195,-0.34475 -1.09712,-0.58288 -1.50585,-1.03426 -0.94548,-1.04416 -1.34447,-2.83098 -1.81423,-4.05722 -1.14084,-2.97795 -2.53804,-5.84808 -4.09282,-8.63083 -2.5356,-4.50376 -4.93109,-9.06753 -7.1154,-13.7525 -1.03199,-2.14442 -2.0856,-4.27503 -3.09606,-6.42946 -0.5681,-1.32525 -1.58632,-4.18967 -3.06437,-4.76828 -0.30339,-0.11876 -0.64656,-0.0809 -0.96984,-0.12136 -3.865971,0.40867 -7.669735,1.36054 -11.47451,2.12322 -4.457144,1.18515 -8.845713,2.59327 -12.867446,4.9022 0,0 8.807854,-6.96098 8.807854,-6.96098 z"
       inkscape:connector-curvature="0" />
    <path
       style="fill:#000000;stroke-width:0.26458332"
       id="path4266"
       d="m 72.278654,199.92633 c 0.312884,4.39388 1.19002,8.76559 2.032736,13.09037 0.898327,4.59162 2.005094,9.13695 3.069937,13.69138 0.582501,1.23854 0.892296,4.87975 1.709761,5.77607 0.180927,0.19838 0.469267,0.26105 0.703903,0.39157 4.283339,0.98183 8.705611,0.13524 12.993605,-0.34358 1.812621,-0.20241 3.628162,-0.37776 5.442244,-0.56665 6.06814,-0.72215 12.13293,-1.47098 18.20358,-2.17196 2.55525,-0.29505 6.37253,-0.89419 9.04683,-0.60634 1.09187,0.11752 2.12649,0.54955 3.18973,0.82433 0.78677,0.55054 1.67521,0.97876 2.36031,1.65162 2.82956,2.77901 3.98117,7.09566 5.156,10.72018 1.85156,5.71234 1.91076,6.30987 3.52224,12.42468 2.67469,10.59257 4.31202,21.42163 7.35484,31.92175 0.24209,0.64937 0.90789,2.6598 1.42805,3.39045 0.32858,0.46154 0.57686,0.41473 0.91472,0.10586 0.16024,-0.1465 0.60291,-0.60725 0.41136,-0.50504 -3.05933,1.63248 -6.0378,3.41217 -9.05671,5.11823 2.58563,-1.97408 4.49454,-4.58396 6.43172,-7.16211 4.4093,-5.43578 9.56684,-10.18833 14.73717,-14.88035 3.80256,-3.69779 8.19694,-6.71153 12.72411,-9.44445 28.96986,-16.39755 2.91059,-1.64033 2.60597,-1.49127 -0.45166,0.22101 0.75036,-0.68859 1.01425,-1.1166 1.38469,-2.24581 1.45413,-5.23198 1.75255,-7.74291 0.70512,-12.08177 0.12886,-24.18134 -0.7919,-36.23279 -0.91289,-9.51206 -1.71287,-19.034 -2.3942,-28.56534 -0.0526,-0.80182 -0.10511,-1.60365 -0.15767,-2.40547 0,0 9.7267,-5.01056 9.7267,-5.01056 v 0 c 0.0193,0.8157 0.0387,1.6314 0.058,2.4471 0.32405,9.62088 1.01655,19.22091 1.86676,28.8091 0.93842,12.02789 1.46261,24.09098 1.33273,36.15818 -0.10961,1.61932 -0.41158,8.48875 -2.06994,9.60598 -3.42784,2.30933 -7.13256,4.17856 -10.68267,6.29511 -2.66944,1.5915 5.36038,-3.1466 8.04057,-4.71991 -4.61535,2.70321 -9.19534,5.58687 -13.04342,9.33631 -5.12328,4.64029 -10.31121,9.25814 -14.69742,14.62786 -1.23746,1.72106 -2.46041,3.42778 -3.8009,5.06915 -0.29233,0.35793 -0.54488,0.75145 -0.87215,1.07776 -0.41911,0.41791 -1.02449,0.61825 -1.39557,1.09773 -3.37767,2.03427 -6.69422,4.17364 -10.133,6.10285 -0.44622,0.25032 -1.22605,-0.095 -1.54626,-0.35859 -1.26333,-1.04021 -1.32855,-3.07605 -1.92135,-4.44302 -2.54891,-10.67858 -3.96463,-21.59465 -6.7937,-32.21258 -1.76628,-6.1057 -1.77335,-6.50682 -3.79877,-12.18118 -1.19833,-3.35721 -2.38289,-7.43905 -5.10636,-9.96768 -0.60948,-0.56587 -1.38939,-0.91449 -2.08408,-1.37173 -0.97356,-0.22792 -1.92531,-0.58878 -2.92067,-0.68375 -2.53786,-0.24213 -6.33482,0.26484 -8.74551,0.52079 -6.08797,0.64638 -12.163955,1.39832 -18.233978,2.19453 -1.862354,0.2299 -3.725357,0.4546 -5.587063,0.68971 -3.996635,0.50471 -8.46504,1.46562 -12.491165,0.50758 -0.493236,-0.11736 -0.948912,-0.35749 -1.423365,-0.53624 -0.327242,-0.28429 -0.714836,-0.51128 -0.981723,-0.85286 -1.114248,-1.42607 -1.024464,-4.39008 -1.738866,-6.06149 -0.936315,-4.60504 -2.016953,-9.17989 -2.916986,-13.79268 -0.912585,-4.35249 -1.710037,-8.74282 -2.442816,-13.12497 0,0 9.997786,-5.09413 9.997786,-5.09413 z"
       inkscape:connector-curvature="0" />
    <path
       style="fill:#000000;stroke-width:0.26458332"
       id="path4268"
       d="m 83.083666,211.15715 c 1.163627,-0.20201 2.164514,-0.86743 3.278704,-1.20597 1.040836,-0.31626 2.115084,-0.50976 3.172676,-0.76444 4.428133,-1.06634 8.853416,-1.99724 13.331204,-2.83268 7.54916,-1.40926 15.22593,-1.77249 22.80931,-2.91825 3.14963,-0.46295 6.13679,-1.56854 9.21814,-2.30806 0.96672,-0.25602 2.01424,-0.29868 2.96887,-0.5978 0.96947,-0.30376 1.91888,-0.83498 2.87042,-1.20297 0,0 -8.78966,6.90213 -8.78966,6.90213 v 0 c -1.924,0.76484 -3.87828,1.33189 -5.92324,1.68307 -3.00247,0.7779 -5.97976,1.67048 -9.07048,2.05125 -7.49053,0.96976 -15.05976,1.28853 -22.487744,2.74262 -4.53185,0.88642 -9.03523,1.82152 -13.488696,3.05339 -8.832104,2.44306 0.978847,-0.23609 -5.334688,1.73379 -0.5069,0.15816 -1.032772,0.24743 -1.549159,0.37115 0,0 8.994343,-6.70723 8.994343,-6.70723 z"
       inkscape:connector-curvature="0" />
    <path
       style="fill:#000000;stroke-width:0.26458332"
       id="path4270"
       d="m 47.276842,69.46149 c 1.786133,-0.266708 12.15988,-1.815502 12.220326,-1.825942 3.978333,-0.687218 7.935553,-1.49152 11.903329,-2.237282 5.276022,-0.984023 10.538688,-2.042568 15.828065,-2.95207 16.299508,-2.802684 24.895998,-3.887791 41.593128,-6.256251 22.44441,-3.06375 44.97577,-5.415481 67.42517,-8.440033 15.15571,-2.041893 18.44046,-2.638647 32.73331,-4.903441 0,0 -7.16925,5.372058 -7.16925,5.372058 v 0 c -32.99287,4.563194 -66.10599,8.125782 -99.11528,12.560003 -18.10871,2.741134 -24.786002,3.574513 -42.368781,6.888832 -14.197661,2.676231 -15.731522,3.361253 -28.828955,5.984703 -4.315359,0.864375 -8.673788,1.506019 -12.972343,2.458384 0,0 8.751281,-6.648961 8.751281,-6.648961 z"
       inkscape:connector-curvature="0" />
    <path
       style="fill:#000000;stroke-width:0.26458332"
       id="path4272"
       d="m 92.090445,151.88155 c 2.72541,-3.79706 5.164421,-7.79646 7.476405,-11.85577 2.03005,-3.68329 3.39111,-7.66416 5.49025,-11.3097 0.9487,-1.86203 2.22707,-3.39727 3.8345,-4.70519 3.80921,-4.04984 8.74645,-6.09452 13.62413,-8.93181 3.4257,-1.86865 4.60897,-2.52032 -8.34242,4.80905 -0.19936,0.11282 0.36252,-0.28342 0.56348,-0.39339 3.44487,-1.88503 6.77979,-3.99917 10.37023,-5.58953 0.32772,-0.14516 2.38966,1.31336 2.42882,1.33906 3.22954,2.42943 6.29801,5.07231 9.72352,7.22661 0,0 -9.29701,5.96604 -9.29701,5.96604 v 0 c -3.33941,-2.25552 -6.38006,-4.91362 -9.73875,-7.14046 -0.39296,-0.18905 -0.76033,-0.44482 -1.1789,-0.56716 -0.28101,-0.0821 -1.1226,0.12646 -0.87766,-0.0339 2.91777,-1.91043 6.00846,-3.5428 9.02183,-5.29856 0.19795,-0.11533 -0.37766,0.26005 -0.57475,0.37683 -9.19845,5.45002 -6.81449,4.10603 -10.82399,6.35641 17.17316,-10.03389 8.5143,-5.6326 5.44342,-2.41647 -0.18584,0.23446 -0.33194,0.50686 -0.55752,0.70339 -2.50102,2.1789 1.18966,-1.57497 -1.39788,0.97481 -0.83794,0.82572 -1.49202,1.83394 -2.08788,2.83831 -2.28833,3.59312 -3.71096,7.57636 -5.6632,11.3495 -2.24478,4.01238 -4.61556,7.97329 -7.18946,11.78253 0,0 -10.247165,4.51942 -10.247165,4.51942 z"
       inkscape:connector-curvature="0" />
    <path
       style="fill:#000000;stroke-width:0.26458332"
       id="path4274"
       d="m 108.1192,174.12603 c 0.39672,-0.0338 0.79344,-0.0677 1.19015,-0.10154 0,0 -8.94438,6.63957 -8.94438,6.63957 v 0 c -0.412495,0.0494 -0.824988,0.0987 -1.237481,0.1481 0,0 8.991711,-6.68613 8.991711,-6.68613 z"
       inkscape:connector-curvature="0" />
    <path
       style="fill:#000000;stroke-width:0.26458332"
       id="path4276"
       d="m 108.73093,172.41997 c 0.45538,1.14053 0.76828,2.32851 1.089,3.5114 0,0 -9.77679,5.31015 -9.77679,5.31015 v 0 c -0.302051,-1.12826 -0.590486,-2.26636 -1.100566,-3.32412 0,0 9.788356,-5.49743 9.788356,-5.49743 z"
       inkscape:connector-curvature="0" />
    <path
       style="fill:#000000;stroke-width:0.26458332"
       id="path4278"
       d="m 124.00765,169.12491 c 1.13837,1.30462 2.40104,2.46251 3.77671,3.50814 0,0 -9.4191,5.92694 -9.4191,5.92694 v 0 c -1.37588,-1.11856 -2.65189,-2.336 -3.91877,-3.57599 0,0 9.56116,-5.85909 9.56116,-5.85909 z"
       inkscape:connector-curvature="0" />
    <path
       style="fill:#000000;stroke-width:0.26458332"
       id="path4280"
       d="m 88.385853,215.57584 c 1.023022,2.05411 2.401173,3.81437 4.41929,4.93247 1.896517,0.63549 3.910169,0.66083 5.888881,0.68537 1.803296,0.002 3.606406,-0.0293 5.409596,-0.0456 1.74747,-0.002 3.49493,-0.009 5.2424,-0.0122 1.7068,-0.003 3.41356,0.004 5.12036,0.002 1.89469,0.19507 3.32492,-0.60964 5.0343,-1.2877 1.68214,-0.3923 3.21888,-1.15394 4.81654,-1.75806 0.26266,-0.078 0.53306,-0.13354 0.78797,-0.23402 0.51586,-0.26291 0.78167,-0.41711 1.32206,-0.61966 0.22021,-0.0825 0.8746,-0.33518 0.67134,-0.2169 -10.53321,6.12946 -11.65351,6.97222 -8.28311,4.55233 5.31171,-3.598 22.44441,-12.71492 2.89287,-1.7762 -0.46467,0.25997 0.83926,-0.6565 1.23849,-1.0088 0.97443,-1.18743 1.95147,-2.34974 2.96169,-3.51004 0.74314,-1.27442 1.48411,-2.55316 2.22185,-3.83606 0.12481,-0.23543 0.24962,-0.47087 0.37444,-0.7063 0,0 10.19029,-4.65506 10.19029,-4.65506 v 0 c -0.10473,0.26859 -0.20945,0.53718 -0.31417,0.80577 -0.12612,0.21091 -0.25224,0.42182 -0.37836,0.63273 -0.11307,0.21806 -0.21475,0.44241 -0.33921,0.65418 -0.24185,0.4115 -0.61213,0.7412 -0.83488,1.16335 -0.2538,0.48097 -0.25127,1.07568 -0.62407,1.50739 -0.29358,0.44746 -0.56734,0.92975 -0.973,1.29289 -0.17559,0.15719 -0.42024,0.22613 -0.58998,0.38963 -0.58778,0.56619 -0.71968,1.45052 -1.333,2.00053 -3.40256,3.47547 -5.06659,3.48464 -11.39347,7.18189 -0.2487,0.14533 -1.01456,0.54542 -0.76669,0.39868 2.91751,-1.72718 5.84375,-3.43965 8.77663,-5.14061 0.24285,-0.14084 -0.47044,0.3065 -0.70566,0.45975 -4.07951,3.29084 -8.79984,5.7951 -13.70709,7.59849 -1.56364,0.68654 -3.2114,1.12431 -4.80625,1.729 -1.72778,0.66613 -3.42147,1.1535 -5.2976,0.96379 -1.70859,-0.002 -3.41714,0.004 -5.12572,0.003 -1.746419,-2.5e-4 -3.492917,-0.002 -5.239233,0.0196 -1.801948,0.0122 -3.604231,0.0344 -5.406054,-5.3e-4 -2.122258,-0.0736 -4.285449,-0.22108 -6.22544,-1.16929 -2.063403,-1.38328 -3.547536,-3.29559 -4.764794,-5.45083 0,0 9.738784,-5.54511 9.738784,-5.54511 z"
       inkscape:connector-curvature="0" />
    <path
       style="fill:#000000;stroke-width:0.26458332"
       id="path4282"
       d="m 81.012518,35.304055 c -1.709364,1.441863 -3.172751,3.146597 -4.621127,4.843034 -3.163819,3.616145 -6.131494,4.437843 -11.474903,7.315885 -0.470318,0.25332 -0.980736,-0.608907 -1.048345,-0.813409 -0.09868,-0.298484 -0.04289,-0.627282 -0.06433,-0.940921 0.199247,-0.253979 0.366879,-0.536311 0.597744,-0.761934 0.436779,-0.426866 1.501074,-1.136798 2.011613,-1.427533 5.042737,-2.871645 8.572141,-5.273786 13.454439,-7.17223 0.406206,-0.133771 0.818464,-0.250399 1.21862,-0.401307 0.544259,-0.205255 1.32847,-0.617826 1.898042,-0.794784 1.115819,-0.346673 2.30179,-0.421989 3.456535,-0.521848 -1.459651,1.215384 2.674128,-0.700731 2.075325,-0.336619 -3.17923,1.933188 -6.278591,4.026278 -9.623681,5.655725 -0.380638,0.185415 -0.803572,-0.268952 -1.21294,-0.377031 -2.990639,-0.789591 -2.750257,-0.640424 -6.265659,-1.166268 -6.492581,-0.74468 -13.027498,-1.042958 -19.55809,-1.187447 -0.109939,-0.01323 -0.419708,0.02495 -0.329821,-0.03972 3.144408,-2.262434 6.280163,-4.546748 9.562798,-6.603497 0.259305,-0.162468 0.611351,0.02896 0.917239,0.03719 0.448021,0.01206 0.896199,0.01773 1.344342,0.02368 1.333831,0.01767 1.865961,0.01614 3.204679,0.02066 2.585288,0.0055 5.170551,-0.0024 7.755816,-0.0122 1.830207,-0.02684 3.640936,0.783203 5.156721,1.772422 1.700223,0.839129 2.113486,2.404174 2.416654,4.140441 0.329451,1.931294 0.04745,3.712795 -1.116997,5.293288 -0.199499,0.182714 -0.364522,0.412346 -0.598498,0.548138 -3.386143,1.965195 -6.736903,4.005551 -10.244487,5.744747 -0.226036,0.112077 -1.082527,-0.581565 -1.173255,-0.765003 -0.154503,-0.312373 -0.225965,-0.667443 -0.250245,-1.01509 -0.0199,-0.284909 0.08006,-0.565563 0.120094,-0.848344 0.456232,-1.619972 1.345075,-3.203401 2.843069,-4.085103 3.567288,-2.099667 7.190285,-4.103209 10.785428,-6.154814 1.16274,-0.23702 4.201702,-1.94685 5.177427,-0.409684 0.228997,0.360767 0.347779,0.843174 0.245806,1.258136 -0.111993,0.45574 -0.555845,0.756309 -0.833766,1.134465 -4.762904,3.363584 -2.61181,1.914874 -12.725304,7.457434 -0.631359,0.346009 -1.341454,0.526878 -1.990394,0.838671 -0.642149,0.308528 -2.500532,1.366713 -1.878156,1.020025 8.356169,-4.65472 9.548035,-7.430247 8.12083,-4.285814 5.714555,1.188945 11.587168,1.201944 17.399259,1.328161 1.288632,0.01114 2.577235,0.02665 3.865896,0.03341 1.855114,0.0097 4.757214,0.01021 6.660744,-0.01217 0.7465,-0.0088 1.49267,-0.04985 2.23921,-0.04492 0.35063,0.0024 1.31935,-0.157562 1.04978,0.06665 -2.96584,2.466797 -6.22813,4.553635 -9.3422,6.830454 -5.627992,0.03762 -11.305604,-0.167566 -16.909825,0.422651 -0.423559,0.133514 -1.636594,0.6522 -1.270675,0.400544 3.16851,-2.1791 6.288413,-4.478835 9.721098,-6.212213 0.667732,-0.337177 1.490335,0.135039 2.237373,0.173636 1.175385,0.06073 2.352,0.09836 3.528668,0.124296 3.411101,0.07518 5.822731,0.04843 9.262661,0.04144 4.41192,0.07043 8.81552,-0.203014 13.21941,-0.407381 0.96973,-0.045 1.94002,-0.152268 2.91007,-0.114763 0.48538,0.01876 1.13681,-0.105043 1.42959,0.282554 0.33925,0.449119 0.039,1.125018 0.0585,1.687528 -9.78194,7.391551 -21.5055,11.011905 -33.220857,13.847752 -4.501724,1.006168 -9.038582,1.842185 -13.602875,2.50689 -1.194921,0.174019 -4.796197,0.695026 -6.194509,0.687419 -0.704215,-0.0038 -1.398561,-0.166614 -2.097842,-0.24992 -2.699083,-0.774203 -3.733456,-2.222005 -4.119872,-4.88106 -0.08105,-2.472182 0.04676,-4.946571 0.08447,-7.419435 -0.03141,-4.615294 -2.501955,-1.200589 10.02551,-5.651664 0.334293,-0.118774 -0.0231,0.709168 -0.03107,1.063844 -0.02765,1.230562 -0.03241,2.044693 -0.04608,3.30244 -0.008,1.810088 -0.01249,3.620566 0.01206,5.430575 0.0056,0.412951 -0.06808,1.670852 0.111308,2.167766 -11.162774,5.285451 -10.151933,8.44519 -10.031415,3.902252 0.04153,-1.565481 0.02841,-3.133802 0.02676,-4.699667 -0.0016,-0.384267 -0.0029,-0.768535 -0.0047,-1.1528 -0.0016,-0.357534 0.0021,-0.715147 -0.0058,-1.072597 -0.0046,-0.206711 -0.014,-0.413493 -0.03211,-0.619461 -0.0043,-0.04832 -0.07838,-0.12001 -0.0348,-0.141303 10.30781,-5.035675 10.202516,-8.455433 10.035511,-3.973121 0.05702,0.836639 -0.381958,4.966126 0.342212,5.289394 0.14885,0.06645 0.322295,-0.04912 0.483442,-0.07368 3.133891,-3.053157 -0.505791,0.610531 -7.854307,4.000444 -0.476322,0.219731 0.711049,-0.773967 1.023974,-1.194967 0.94986,-1.277911 1.630889,-2.708806 2.287876,-4.148666 1.975715,-5.52046 3.345609,-5.262711 11.438242,-8.682456 0.494263,-0.208864 0.847656,1.404845 1.175673,2.565914 0.598969,4.546417 0.54515,9.145521 1.181045,13.68924 1.50927,3.789613 0.645157,1.211378 -9.761646,5.127392 -0.325922,0.122642 0.132106,-0.684816 0.166409,-1.031354 0.05509,-0.556477 0.07714,-1.115851 0.101452,-1.674516 0.0524,-1.204196 0.0713,-2.868528 0.09103,-4.060278 0.202573,-3.570885 -0.286435,-7.183334 0.205142,-10.734103 1.107642,-4.613711 1.949151,-2.929197 10.529488,-6.38701 0.38507,-0.15518 0.890728,2.928911 0.933548,3.174439 0.710885,2.528393 1.152358,5.114899 1.689989,7.681206 1.639126,3.404854 0.931072,1.734995 -9.728898,4.388755 -0.562449,0.14002 0.09167,-1.155795 0.119171,-1.734756 0.110754,-2.331337 0.09575,-4.667208 0.09747,-7.000322 0.03204,-1.880788 -0.227002,-3.929198 0.554911,-5.716514 0.180903,-0.413514 0.379799,-0.882425 0.765434,-1.116954 3.452384,-2.099622 6.918992,-4.23068 10.63544,-5.816671 0.474901,-0.202663 0.926164,0.456766 1.389243,0.685146 2.874864,1.976509 4.789519,4.917908 6.873131,7.643418 0.82359,0.827067 1.34085,2.248736 2.39721,2.865726 0.13674,0.07987 0.35131,0.137118 0.47368,0.03659 0.1843,-0.151418 0.49595,-0.763481 0.28221,-0.657595 -3.07951,1.525569 -6.01546,3.32522 -9.023188,4.98783 0.730975,-0.738566 0.843539,-3.846182 1.542217,-4.295855 10.177271,-6.550117 7.158691,-8.256219 11.437581,-5.017254 3.30467,3.118811 5.48749,7.202207 7.99888,10.946688 0.75608,0.753523 1.27516,1.624823 2.45817,1.676837 0.37786,0.01662 0.72355,-0.220665 1.08533,-0.330996 -2.80306,1.507865 -5.52227,3.183225 -8.40916,4.523594 -0.50256,0.233333 0.84874,-0.725943 1.18244,-1.16827 0.38939,-0.51616 0.64485,-1.120873 0.96728,-1.681308 1.40262,-2.728968 1.26926,-6.074516 3.09914,-8.5779 3.59057,-1.720557 7.00832,-3.861864 10.7717,-5.161672 0.50749,-0.175281 0.85231,0.654338 1.25703,1.007144 2.00872,1.751031 3.60366,3.907497 5.25853,5.980896 0.3999,0.626975 3.29777,4.971074 4.29472,4.372139 0.19611,-0.117816 0.21173,-0.405617 0.3176,-0.608423 -14.06845,8.223793 -9.25641,7.599212 -8.31306,2.930068 0.26449,-1.3091 0.33667,-2.65879 0.4881,-3.983675 1.52317,-4.61744 0.51985,-2.321873 10.44389,-7.093458 0.39559,-0.190204 0.76767,0.427418 1.13481,0.668001 1.20287,0.788244 2.21106,1.738305 3.2166,2.756686 0.35653,0.321776 0.69207,0.668464 1.06959,0.965327 0.30724,0.241588 1.44276,1.028626 1.94359,1.073703 0.22087,0.01987 0.81399,-0.348967 0.61968,-0.242089 -9.62739,5.295371 -11.66967,7.333258 -8.67257,4.467379 0.94389,-2.203323 0.76603,-4.678995 0.92121,-7.026548 0.8366,-4.925591 1.60732,-2.780612 10.33889,-7.083041 0.16936,-0.08345 1.70399,1.334045 1.87219,1.460034 0.91956,0.898319 2.3242,2.226742 3.55599,1.129086 -3.10014,1.755267 -6.18771,3.532947 -9.30044,5.265804 -0.16671,0.09281 0.3532,-0.07388 0.58276,-0.710944 0.24866,-0.690065 0.0205,-1.382559 -0.13192,-2.063125 -0.28208,-0.512538 -0.14239,-1.178399 -0.40948,-1.694453 -0.58823,-1.136536 -4.08688,-2.212012 -5.17168,-2.582296 -3.55064,-0.903274 -7.25594,-1.814973 -10.93796,-1.457103 -2.54478,0.418952 -5.07815,0.888656 -7.65032,1.105273 -2.8307,0.161539 -5.64484,0.535295 -8.47495,0.728173 -2.40804,0.175477 -4.82151,0.181388 -7.23421,0.165868 -3.53853,-0.03565 -7.07726,-0.01926 -10.615814,0.0021 -2.263259,0.0068 -4.526431,0.02032 -6.789698,0.01352 -2.397442,-0.0049 -4.794752,-0.01243 -7.192203,-0.0038 -1.934723,0.01344 -3.869459,0.0089 -5.804204,0.01146 -1.742551,0.01085 -3.486152,-0.04034 -5.227981,0.0249 -0.04006,0.0049 -0.10264,0.05102 -0.120187,0.01468 -0.216144,-0.447704 -0.943864,-1.094518 -0.543298,-1.388973 4.971785,-3.654739 7.474259,-5.112294 12.168491,-6.097433 2.00605,-0.428525 4.052917,-0.543124 6.097122,-0.602507 2.543289,-0.05229 5.087543,-0.02868 7.631189,-0.01995 2.712577,0.0083 5.425093,0.0013 8.137643,-0.01106 2.67265,-0.07844 5.3254,0.30289 7.9854,0.507878 2.34222,0.167582 4.69021,0.220332 7.03763,0.242057 1.74798,0.0088 3.49599,-5e-6 5.24397,-0.0046 1.72808,0.0066 3.45618,0.0011 5.18427,-0.0016 1.89997,0.07205 3.82021,-0.137625 5.70449,0.139722 1.66066,0.768262 2.27712,2.344586 2.44177,4.064108 -0.0419,0.374944 -0.0483,1.171742 -0.44786,1.417188 -9.79899,6.019443 -7.76721,5.892286 -15.28986,6.149557 -4.29086,0.06227 -8.58228,0.06763 -12.87348,0.0886 -2.30855,0.02027 -4.61711,0.0096 -6.92568,0.0082 -2.068,0.0065 -4.135956,-0.0049 -6.203952,-0.0013 -0.247235,0.0052 -0.494469,0.01045 -0.741704,0.01569 -0.02175,0.01146 -0.08557,0.04814 -0.06522,0.03437 3.272226,-2.212628 6.440106,-4.588793 9.821186,-6.631209 0.23883,-0.14427 4.8169,0.0746 5.03915,0.07749 4.65768,0.147757 9.32392,-0.04617 13.98097,0.07468 2.13251,0.05534 4.84841,0.277747 6.99774,0.435483 4.29754,0.452583 8.61213,0.680667 12.91736,1.028317 2.4244,0.189452 4.8518,0.337383 7.28086,0.451514 1.07388,0.05046 2.33116,-0.01902 3.40444,0.196945 -3.19021,2.26029 -6.27465,4.677815 -9.57063,6.780877 -0.32142,0.205086 -0.76168,0.03636 -1.1425,0.05483 -0.58872,0.02857 -1.17715,0.06349 -1.76611,0.08631 -2.62185,0.101561 -5.24586,0.15889 -7.86896,0.215096 -5.84746,0.10477 -11.6956,0.110236 -17.54374,0.11662 -3.59376,0.145069 -7.21458,-0.176524 -10.80612,0.02833 -1.19988,0.06844 -2.50153,0.321601 -3.68867,0.52488 -2.50486,0.388234 -4.869968,1.357876 -7.257922,2.182103 -1.738315,0.52133 -3.492191,1.040133 -5.155592,1.772584 -0.714803,0.197835 -1.365075,0.495261 -2.038704,0.781921 -0.227931,0.09699 -0.918348,0.361532 -0.704456,0.236593 12.165604,-7.10633 11.682696,-6.812513 8.365657,-4.672994 -3.723315,2.45197 -7.753689,4.487645 -11.557513,6.747496 -2.967993,1.763284 5.979279,-3.452748 8.979759,-5.160166 0.25631,-0.145851 -0.425942,0.28293 -1.190762,0.765675 -4.477517,2.688297 -8.926835,5.315903 -13.573538,7.606575 -3.564583,2.227946 0.177716,-0.120771 8.390324,-4.801994 0.221551,-0.126283 -0.429615,0.27495 -0.641485,0.416878 -0.680387,0.455774 -1.281994,0.991594 -1.913263,1.511487 -1.133176,0.848432 -2.024549,1.736374 -2.476344,3.09086 -1.807879,6.736067 -10.363631,7.431556 -16.092429,7.804473 -4.977953,0.325472 -6.523641,2.259901 7.524001,-6.3989 0.343607,-0.211797 0.807059,0.01886 1.210628,0.02641 2.30007,0.04302 1.724096,0.03133 4.171944,0.04321 2.048685,-0.01006 4.098404,0.01524 6.146634,-0.04392 0.291211,-0.0084 1.110723,-0.212153 0.872894,-0.04389 -9.75324,6.900262 -6.201137,6.652887 -11.813108,6.535513 -4.403106,-0.2208 -8.886463,0.315119 -13.244661,-0.489873 -0.214151,-0.108271 -0.499655,-0.131964 -0.64245,-0.324814 -0.204862,-0.276669 -0.601176,-0.776221 -0.324141,-0.980585 16.718817,-12.333274 5.573249,-5.134771 11.275054,-6.399686 1.011513,-0.224399 1.997046,-0.554726 3.004691,-0.795904 2.706507,-0.646406 5.454147,-1.092893 8.231295,-1.261853 5.063178,-0.152316 6.089568,-2.32687 -7.57683,6.512949 -0.233349,0.150936 -0.555667,-0.01352 -0.833551,-0.0172 -0.359238,-0.0048 -0.718519,-0.0054 -1.077778,-0.0081 -0.245726,0.0074 -0.939054,0.16234 -0.737179,0.02204 3.312877,-2.302325 6.614136,-4.65364 10.162884,-6.572555 0.560583,-0.303125 1.27418,0.03233 1.911371,0.04364 0.885497,0.01572 1.771057,0.02844 2.656652,0.03746 3.810783,0.03878 2.449981,0.0388 6.368182,-0.07114 5.684208,-0.03819 11.258516,-1.238885 16.849166,-2.119688 3.41546,-0.755179 6.89664,-1.068676 10.35094,-1.560915 0.0717,-0.06738 0.29636,-0.257858 0.21521,-0.202158 -3.227,2.21501 -6.29679,4.672362 -9.65555,6.681986 -0.41153,0.246227 -0.9586,-0.03244 -1.43801,-0.04445 -0.75596,-0.01895 -1.51198,-0.03605 -2.26808,-0.04841 -2.65885,-0.04345 -3.52925,-0.03984 -6.25841,-0.0539 -2.967967,0.0024 -5.936669,-0.014 -8.904177,0.05243 -0.485788,0.01087 -0.971672,0.024 -1.456846,0.05073 -0.144934,0.008 -0.550844,0.136954 -0.432179,0.05336 3.210701,-2.261706 6.499231,-4.410855 9.748852,-6.616282 4.18621,-0.650134 8.41317,-0.956365 12.64089,-1.168352 4.37297,-0.349726 8.74268,-0.741574 13.12625,-0.9315 4.75106,-0.129072 9.5047,-0.07096 14.25692,-0.0635 0.97611,-1.98e-4 1.95225,0.0058 2.92834,-5.29e-4 0.75289,-0.0049 1.50575,-0.01672 2.25847,-0.03353 0.43077,-0.0096 0.86176,-0.01926 1.29182,-0.0458 0.0718,-0.0044 0.26987,-0.0878 0.21067,-0.0469 -9.97598,6.892377 -5.82759,6.739168 -11.1276,6.586789 -4.52942,-0.07033 -9.05948,-0.05592 -13.58914,-0.02365 -2.96705,0.02442 -5.93383,0.04138 -8.90092,0.01945 -4.80143,-0.05744 -9.60303,-0.05787 -14.404669,-0.03814 -3.298285,0.03541 -6.59671,0.03369 -9.895091,0.04994 -2.057421,0.01754 -4.114882,0.01556 -6.172348,0.01937 -2.059196,0.100285 -3.156487,-0.518084 -3.468381,-2.62903 2.274737,-7.601331 13.056235,-7.326257 19.249041,-7.553499 0.807096,-0.02355 1.614098,-0.05067 2.421288,-0.07064 1.88533,-0.04663 3.77192,-0.04797 5.657,-0.102045 0.25064,-0.0072 0.95096,-0.188235 0.75136,-0.03646 -3.05404,2.322237 -6.2757,4.415359 -9.413557,6.623039 -5.780471,-0.179054 -11.566176,-0.162142 -17.348906,-0.140552 -1.751198,0.01297 -3.916765,0.06807 -5.693508,-0.05357 -0.253249,-0.01733 -2.29158,-0.126762 -2.680682,-0.643792 -0.251433,-0.334098 -0.382923,-0.81574 -0.283646,-1.22192 0.107209,-0.438648 0.561149,-0.707628 0.841727,-1.061442 3.775609,-2.031236 7.463168,-4.235411 11.326831,-6.093706 0.467928,-0.22506 4.636894,-0.864833 5.009684,-0.910463 3.282103,-0.401725 6.601161,-0.52582 9.901034,-0.68107 2.967433,-0.127124 5.937093,-0.192399 8.906743,-0.237931 1.84281,-0.02825 3.4425,0.02585 5.16307,-0.653913 -3.15795,2.005862 -6.23101,4.152075 -9.47385,6.017586 -0.27717,0.159448 -0.64091,0.01535 -0.95916,-0.01577 -0.7778,-0.07608 -1.54746,-0.222609 -2.32458,-0.305421 -3.461437,-0.368856 -6.936807,-0.510445 -10.412689,-0.657217 -2.40253,-0.261234 -8.444254,0.57491 -10.125998,-1.713281 -0.182502,-0.248311 -0.226962,-0.573016 -0.340442,-0.859522 0.02101,-0.300467 -0.03392,-0.616215 0.06299,-0.901393 0.105492,-0.31042 0.248835,-0.655786 0.525804,-0.831221 3.351498,-2.122858 7.187721,-5.283536 11.394201,-6.387705 1.70978,-0.448805 0.386147,0.0013 1.636083,-0.451914 0.07471,-0.07171 0.308851,-0.274675 0.224134,-0.21512 -3.344302,2.351032 -6.139082,5.993622 -10.118429,6.929843 -1.687478,0.397012 -3.485861,0.585507 -5.196474,0.856051 -3.897101,1.111671 -8.02136,1.337429 -11.858681,2.643627 -2.812312,0.853262 -0.890661,-2.327355 -0.399166,-3.192108 2.243159,-4.163145 3.581157,-3.471098 10.907876,-6.579947 0.558134,-0.236826 1.0604,2.745153 1.099214,2.971477 0.425202,2.605665 -0.09213,5.335048 0.809448,7.845129 0.116081,0.178525 0.192067,0.390819 0.348245,0.535575 0.38704,0.358732 1.591717,-0.919433 0.986949,-0.590952 -6.984955,3.793873 -12.206666,7.225122 -8.649618,4.897405 1.085106,-1.012629 1.803257,-2.337583 1.430713,-3.823313 -0.705522,-1.174568 -1.713701,-2.067481 -2.474799,-3.198853 -0.775092,-1.263512 -1.57816,-2.115952 -2.965222,-2.655509 -0.282279,-0.08082 -0.5617,-0.172384 -0.846834,-0.242456 -1.003025,-0.246502 -2.327137,-0.281326 -1.938967,-0.557072 9.447006,-6.710966 5.94482,-6.573716 10.85347,-6.489777 3.127166,0.03658 6.249027,0.63359 9.271561,1.417317 2.141985,0.734905 3.379454,2.7157 4.209515,4.712317 0.630164,1.758675 0.663443,3.635362 0.705022,5.481016 0.09327,0.732496 -0.09772,1.504108 0.02719,2.233784 0.03348,0.195575 0.34901,0.483097 0.170752,0.570241 -10.365677,5.06731 -7.877884,7.156656 -11.214769,3.73944 -3.39961,-3.501194 -7.433802,-6.267267 -11.531074,-8.879779 -2.120561,-1.357217 -4.244972,-2.896978 -5.61154,-5.052221 -2.607823,-6.645299 -0.207967,-4.200588 9.620115,-9.004276 3.483364,1.993125 7.11019,3.633893 10.912274,4.920094 2.667966,1.156777 5.387393,2.182939 8.257344,2.687444 1.811708,0.210032 3.661151,0.340217 5.472089,0.0901 3.107907,-0.331227 6.233773,-0.43841 9.355483,-0.552601 2.29586,-0.08997 4.59329,-0.101632 6.89052,-0.110334 1.73945,-0.0088 3.47888,-0.0024 5.21832,7.94e-4 2.18275,0.01138 4.36543,0.01664 6.5482,0.01048 1.92393,-0.0083 3.84785,-0.005 5.77179,-0.0088 1.02548,-0.146185 2.06725,-0.321273 2.98566,-0.83374 0.18539,-0.103449 0.69223,-0.489365 0.50734,-0.385027 -3.05934,1.726417 -6.09031,3.502642 -9.13546,5.253961 0.77061,-0.880403 1.57668,-1.918422 2.02844,-3.007786 -3.06054,-0.982816 -6.34155,-1.066964 -9.52792,-1.223036 -3.83887,-0.117822 -7.68055,-0.117991 -11.52091,-0.110352 -2.12364,0.21758 -4.37168,-0.316604 -6.467804,0.197924 -0.179051,0.04395 -0.339127,0.144769 -0.50869,0.217154 3.206364,-2.115246 6.412724,-4.230492 9.619084,-6.34574 3.24415,0.07322 6.45272,0.459049 9.66723,0.872799 3.63139,0.463362 7.28729,0.686004 10.94453,0.800738 2.24849,-0.16999 4.35999,0.589145 6.52843,1.055269 1.83512,0.372425 3.71195,0.438399 5.5783,0.479203 3.03619,-0.04931 6.05581,0.22433 9.08157,0.430348 1.38295,0.07681 2.80176,0.148034 4.14963,0.505012 0.42627,0.112893 1.30896,0.662586 0.95078,0.919793 -3.15745,2.267386 -6.60449,4.101573 -9.90674,6.152358 -1.90455,0.422 -3.85486,0.539012 -5.77442,0.857168 -0.36163,0.142211 -0.7397,0.24818 -1.0849,0.426633 -0.36717,0.189817 -1.40346,0.87258 -1.04165,0.67273 2.8643,-1.582135 5.6692,-3.271478 8.55138,-4.820817 0.32409,-0.174218 -0.59087,0.440576 -0.86323,0.687983 -0.74806,0.679542 -0.89072,0.965686 -1.50944,1.802677 -1.41946,1.994953 -2.34807,4.274045 -3.6154,6.357874 -0.65839,1.044644 -1.47274,1.952096 -2.54682,2.578987 -9.98554,5.828072 -6.68992,4.338473 -10.76208,6.154615 -2.10944,-2.003652 1.57619,-4.0822 2.97855,-5.089596 4.75051,-1.707883 8.72518,-6.02076 13.7461,-7.500273 1.46831,-0.432668 2.99678,-0.634604 4.50864,-0.838555 2.76208,-0.06677 5.44576,-0.56379 8.17014,-0.973603 2.41239,-0.369414 4.59929,-0.771692 6.24145,1.340051 0.52726,0.99133 1.02842,2.501119 -0.26262,3.229634 -10.53681,5.945753 -7.07774,5.272188 -12.83228,6.048158 -2.15798,0.294539 -4.33516,0.343379 -6.50572,0.471585 -0.7917,0.04676 -0.66548,-0.174487 -0.80002,0.183364 3.17327,-2.243476 6.25387,-4.624117 9.5198,-6.730431 0.24932,-0.160798 0.59323,0.01257 0.88988,0.01685 0.43189,0.0062 0.86381,0.01159 1.29575,0.01476 1.52256,0.01125 3.04502,0.0028 4.56757,-0.0054 2.46867,-0.167897 5.0056,0.253407 7.46426,-0.06918 -3.18799,2.211215 -6.27117,4.581744 -9.56395,6.633649 -0.2921,0.18202 -0.68796,-0.02355 -1.03206,-0.03073 -0.50218,-0.01048 -1.00444,-0.01717 -1.50671,-0.02228 -1.85597,-0.01897 -3.71209,-0.01929 -5.56812,-0.0167 -3.25259,0.0362 -6.50484,0.02053 -9.75738,-0.0081 -3.57185,-0.01299 -7.14375,0.01106 -10.71552,0.0347 -1.96116,0.01873 -3.92234,0.02056 -5.88356,0.02037 -1.78047,-0.102463 -2.40236,-1.572467 -1.65711,-3.071474 3.89383,-4.081037 9.14525,-6.473518 14.16405,-8.954765 1.69552,-0.710689 0.3433,-0.09908 1.85433,-0.896749 0.26078,-0.137668 1.04851,-0.539287 0.79337,-0.391425 -15.92537,9.229198 -10.74551,6.468896 -7.60265,4.20383 1.25079,-1.009042 2.52834,-1.996096 3.89524,-2.843567 1.15746,-0.718775 2.80448,-1.381149 2.90203,-2.933023 -0.56911,-1.535665 -1.46783,-1.770377 -2.95444,-2.155587 -1.87589,-0.381606 -3.79988,-0.364649 -5.70529,-0.376269 -0.33818,5.29e-4 -0.67636,0.0011 -1.01454,0.0016 0,0 9.04203,-6.563539 9.04203,-6.563539 v 0 c 0.33807,0.0034 0.67615,0.0068 1.01422,0.01016 1.98348,0.03768 3.99119,0.0491 5.90884,0.626073 1.86383,0.662638 2.93307,1.397796 3.68113,3.273358 0.3405,2.08021 -0.63393,3.146256 -2.42587,4.073594 -1.37274,0.836451 -2.68776,1.703657 -3.95184,2.692853 -3.95074,3.768632 -9.2697,5.843275 -14.1424,8.252139 -3.94154,2.059684 -1.20337,0.649394 7.55482,-4.490378 0.30252,-0.177533 -0.6316,0.3147 -0.91077,0.527071 -0.11703,0.08903 -1.06503,1.108866 -1.21626,1.237591 -0.15741,0.133972 -0.34396,0.22932 -0.51594,0.343979 -1.13616,0.596953 -1.18849,0.852975 0.33972,0.857446 1.94252,-1.72e-4 3.88501,0.0013 5.82748,0.02037 3.53993,0.02387 7.08001,0.0478 10.62002,0.03467 3.2601,-0.02806 6.51992,-0.04495 9.78006,-0.0084 2.3939,0.0033 4.78882,0.008 7.18239,-0.03898 4.71237,-0.09242 1.89366,-0.622904 -7.57767,6.603695 -0.75416,-0.147836 -1.80876,-0.06142 -2.53917,-0.06221 -1.58652,-0.0019 -3.17309,-0.0016 -4.75955,0.01183 -1.97922,-5.29e-4 -3.95786,0.0068 -5.93681,0.0422 -4.59346,0.08212 -1.35348,0.32698 7.659,-6.719758 0.19944,0.242692 2.02245,0.04988 2.03107,0.04944 1.70014,-0.08625 3.39918,-0.227137 5.08197,-0.490606 5.05475,-1.042414 1.29388,-0.473049 -6.41704,4.640725 -0.39958,0.264994 1.18819,-0.02598 1.35789,-0.474411 0.0682,-0.180245 -0.0612,-0.381696 -0.11661,-0.56628 -0.0483,-0.160959 -0.12876,-0.310462 -0.19314,-0.465696 -1.29829,-1.486582 -3.80125,-0.606369 -5.45744,-0.463303 -2.72751,0.448016 -5.44994,0.782693 -8.2056,0.989285 -1.47804,0.24271 -2.9283,0.50578 -4.34168,1.023003 -3.59603,1.315966 -9.79348,5.787382 5.30825,-3.403185 -1.26333,0.821788 -1.13778,0.702773 -2.30233,1.602542 -0.27219,0.210304 -0.54116,0.425053 -0.80289,0.648245 -0.19484,0.16615 -0.31299,0.480748 -0.56615,0.519213 -0.55611,0.0845 -0.67935,-0.325459 -0.84227,-0.651219 3.34587,-1.831118 1.81085,-0.995606 -8.46882,4.941716 -0.24673,0.142509 0.47497,-0.31581 0.72314,-0.455795 0.89448,-0.504534 0.71361,-0.217993 1.42852,-0.976281 0.21449,-0.227502 0.39399,-0.485616 0.59099,-0.728425 1.43086,-2.010833 2.32535,-4.321958 3.64905,-6.402612 0.0413,-0.06339 1.27962,-1.97522 1.36696,-2.074262 0.2494,-0.28285 0.53972,-0.536106 0.86035,-0.734621 3.67001,-2.272255 8.15209,-5.949915 12.84945,-7.094918 1.93919,-0.270486 3.90258,-0.459555 5.78371,-1.033113 -3.02447,1.973564 -6.04894,3.947131 -9.07341,5.920697 0.11703,0.132813 0.39477,0.226904 0.35108,0.398444 -0.0361,0.141872 -0.27645,-0.09849 -0.41912,-0.131334 -1.29939,-0.299127 -2.63518,-0.388448 -3.96198,-0.469024 -3.06011,-0.213328 -6.11712,-0.352502 -9.1853,-0.307133 -1.90546,-0.08497 -3.81778,-0.219806 -5.67861,-0.665642 -2.10522,-0.494088 -4.18828,-1.012534 -6.3732,-0.922173 -3.64032,-0.201674 -7.27633,-0.499862 -10.89519,-0.947293 -1.37866,-0.169606 -2.75177,-0.354243 -4.13728,-0.462473 -1.60895,-0.125685 -3.25447,-0.04156 -4.853976,-0.275657 -0.357952,-0.05239 -0.70666,-0.155344 -1.059987,-0.233018 2.894263,-2.24486 5.730083,-4.567161 8.682783,-6.734582 0.1464,-0.107466 0.36206,-0.03044 0.54351,-0.03797 0.33861,-0.01402 0.67746,-0.02402 1.01635,-0.02669 1.79106,-0.0141 3.58263,0.03246 5.37373,0.0095 3.85033,-0.0039 7.7039,-0.0602 11.54985,0.16592 2.3547,0.143211 7.95201,0.27854 9.80722,1.64883 0.36673,0.270875 0.5849,0.699532 0.87736,1.049298 -0.008,0.291235 0.0501,0.591807 -0.0235,0.873707 -0.20307,0.778068 -1.51679,1.906865 -1.68299,2.818781 -4.80843,2.906141 -8.37183,6.625984 -13.81822,6.795196 -1.91585,-0.0038 -3.83168,-5.29e-4 -5.74751,-0.0089 -2.19128,-0.0066 -4.38247,-0.0013 -6.57374,0.007 -1.73535,2.64e-4 -3.47068,7.94e-4 -5.20603,-0.0058 -2.26364,0.0011 -4.527494,0.01918 -6.790349,0.08264 -3.139058,0.105466 -6.276181,0.275312 -9.395703,0.656064 -1.891403,0.08072 -3.797932,0.03161 -5.657477,-0.357796 -2.835677,-0.666684 -5.518827,-1.782652 -8.198233,-2.910867 -2.12547,-0.779653 -4.207164,-1.607976 -6.259597,-2.566953 -1.205841,-0.563414 -2.369302,-1.218271 -3.593031,-1.741694 -0.383601,-0.164076 -0.78849,-0.273063 -1.182733,-0.409596 3.0181,-1.853009 6.108949,-3.592433 9.054298,-5.559028 0.142084,-0.09487 -0.360931,-0.277778 -0.486341,-0.161758 -0.173069,0.16011 0.612638,2.369661 0.740889,2.72466 1.228934,2.024073 3.226215,3.455056 5.141841,4.775592 4.100237,2.766777 8.143274,5.623933 11.813185,8.952804 0.278239,0.258929 1.146461,0.559355 0.834718,0.77679 -3.03345,2.115775 -6.559616,3.434601 -9.691975,5.400982 -0.164412,0.103211 0.174048,0.500129 0.362955,0.455432 0.0079,-0.0019 0.0517,-1.987282 0.03612,-2.235094 -0.01355,-1.71669 -0.0028,-3.464716 -0.50691,-5.123148 -0.671676,-1.754777 -1.70081,-3.332522 -3.614277,-3.853116 -2.96315,-0.772708 -6.034074,-1.312524 -9.106236,-1.129491 -0.34999,0.03518 -1.322075,0.328475 -1.049975,0.105556 6.953343,-5.696545 6.047664,-7.586422 11.317941,-5.609386 1.473716,0.743463 2.45564,1.753597 3.304834,3.167546 0.836808,1.206262 1.992013,2.163191 2.652448,3.502578 0.621191,1.927148 0.244133,3.285977 -0.875083,4.94166 -2.843792,3.508944 -0.71401,1.005454 -10.559415,6.361734 -0.912955,0.496681 -2.021943,-0.858205 -2.299991,-1.536454 -0.926066,-2.593805 -0.525928,-5.325374 -0.891744,-8.024987 -0.05628,-0.340629 -0.09887,-0.683807 -0.168841,-1.021889 -0.04292,-0.207391 -0.09093,-0.415642 -0.169363,-0.612368 -0.0098,-0.02468 -0.101954,0.0028 -0.07899,-0.01056 3.129573,-1.818904 6.292463,-3.580352 9.41315,-5.414459 0.158848,-0.09336 -0.383707,0.06359 -0.519912,0.187674 -0.194807,0.177472 -0.280516,0.446199 -0.420777,0.669298 -0.09088,0.177908 -0.916173,1.83397 -1.123487,1.772367 -1.376733,-0.409099 -0.111977,-0.773983 0.140247,-0.803852 3.907251,-0.952521 7.911725,-1.485442 11.819358,-2.447711 1.761139,-0.309366 3.582091,-0.79671 5.366052,-0.952748 0.362143,-0.03168 1.361744,-0.222055 1.090396,0.01984 -2.757718,2.458538 -5.802596,4.5754 -8.747395,6.806444 -0.07754,0.05875 -0.192739,0.02654 -0.28911,0.03981 -0.564388,0.147087 -0.973717,0.24063 -1.544416,0.466579 -0.311946,0.123505 -1.198769,0.599914 -0.912135,0.425543 2.876161,-1.749695 5.814044,-3.396787 8.6854,-5.154359 0.222737,-0.136337 -0.501869,0.157414 -0.729877,0.284745 -0.136863,0.07643 -0.231645,0.211264 -0.347469,0.316899 -0.121751,0.698982 1.175306,1.003287 1.611879,1.103625 2.526474,0.580654 5.146074,0.272425 7.703134,0.541208 3.534077,0.175276 7.080827,0.297312 10.605287,0.62426 0.85565,0.07937 1.72123,0.117393 2.55988,0.304734 0.53455,0.119412 1.92598,0.233381 1.5265,0.6081 -2.72652,2.557539 -6.08344,4.346424 -9.12517,6.519635 -4.584797,0.679937 -9.284419,0.0085 -13.892172,0.463346 -3.316007,0.180557 -6.629794,0.349983 -9.916739,0.856311 -0.881973,0.135861 -1.76063,0.298294 -2.630543,0.497266 -0.794719,0.181774 -3.005267,1.141526 -2.359396,0.644062 2.40102,-1.849314 5.154986,-3.188349 7.732477,-4.782521 -0.357468,0.09456 -0.704273,0.248965 -1.072404,0.283683 -0.187481,0.01767 -0.689652,-0.256606 -0.549608,-0.130712 0.36049,0.324056 2.182326,0.465265 2.23751,0.469614 1.688274,0.133046 3.877918,0.111893 5.53063,0.122973 5.924958,0.01622 11.853165,0.02439 17.775235,-0.178982 -2.93129,2.206127 -5.78469,4.519752 -8.793874,6.618388 -0.17725,0.123613 -0.431358,-0.02921 -0.647404,-0.03396 -0.477737,-0.0105 -0.955656,-0.01154 -1.433507,-0.01183 -2.157384,-0.0013 -4.314756,0.03844 -6.471013,0.106458 -1.825117,0.0841 -3.350556,0.123303 -5.166997,0.330673 -0.680683,0.07771 -1.362469,0.165145 -2.031135,0.31432 -0.46292,0.103272 -1.747779,0.703453 -1.352952,0.44064 7.310784,-4.866392 11.909377,-6.438921 8.112575,-5.106247 -0.333457,1.458632 1.581687,1.15566 2.509811,1.177147 2.039699,0.0038 4.079396,0.0019 6.11905,0.01937 3.252546,0.01625 6.505146,0.01429 9.757606,0.04995 4.83661,0.02011 9.67317,0.01834 14.50958,-0.03807 2.94927,-0.02132 5.89822,-0.0058 8.84745,0.01932 4.55323,0.03257 9.10687,0.04437 13.65981,-0.02864 5.08081,-0.142579 2.03513,-0.35379 -7.01619,6.582084 -0.32404,0.248312 -0.81268,-0.0878 -1.2208,-0.09804 -0.72092,-0.01807 -1.44203,-0.03012 -2.16317,-0.03503 -0.97549,-0.0066 -1.95104,2.54e-4 -2.92656,2.64e-4 -4.79406,0.01675 -9.58977,0.03189 -14.38099,0.213681 -4.34527,0.202464 -8.68127,0.533415 -13.01818,0.866939 -4.329376,0.266313 -8.634157,0.713962 -12.931265,1.300376 2.820895,-2.206553 5.597474,-4.470966 8.462687,-6.61966 0.08079,-0.06058 0.198133,0.04321 0.298948,0.0491 0.44132,0.02574 0.88346,0.03646 1.32543,0.0457 2.92612,0.06122 5.8533,0.03698 8.77976,0.0401 2.92625,-0.0122 5.85274,-0.05152 8.77896,-0.05618 0.53176,-7.94e-4 1.972,-0.363109 1.59521,0.01212 -7.12727,7.097487 -4.91205,7.464448 -8.66743,6.728534 -3.4078,0.299701 -6.77676,0.878157 -10.14559,1.461984 -5.572996,0.864679 -11.144049,1.9133 -16.807027,1.915197 -3.074156,0.08015 -6.145696,0.0925 -9.220321,0.137279 -0.675651,0.0098 -2.479974,0.538181 -2.026835,0.03691 2.305875,-2.550795 5.20629,-4.500084 7.943188,-6.581672 0.182679,-0.138938 0.458885,0.01122 0.688327,0.01685 0.369784,-0.0036 0.739579,-0.0062 1.109353,-0.01072 0.302276,-0.0037 1.136078,-0.211098 0.906793,-0.01408 -8.762323,7.528853 -5.254133,6.450901 -10.53375,6.723427 -2.711276,0.24038 -5.400548,0.673944 -8.03769,1.358628 -0.341032,0.09162 -2.657393,0.708557 -3.082978,0.842147 -0.36159,0.113504 -1.383459,0.598422 -1.069237,0.386535 2.895569,-1.952535 5.892472,-3.750418 8.838705,-5.625626 -0.160972,-0.120282 -0.401928,-0.176945 -0.482917,-0.360849 -0.05621,-0.127641 0.260231,0.10043 0.390348,0.150646 4.30917,0.732924 8.715779,0.330485 13.062923,0.381722 5.107871,-0.08636 3.158083,-0.428779 -6.190112,6.548829 -0.02058,0.01537 -3.947078,-0.06098 -4.512127,-0.06063 -0.772888,5.29e-4 -1.545773,0.0041 -2.318658,0.0061 -9.324459,0.05931 4.129746,-0.03135 -4.306477,0.04091 -0.460328,0.0039 -1.723009,0.310944 -1.381033,0.0028 7.644159,-6.8884 5.471174,-6.483358 10.541955,-6.722046 1.139643,-0.09728 2.40705,-0.173432 3.53241,-0.397598 0.495557,-0.09871 1.879841,-0.681839 1.463278,-0.39584 -2.772412,1.903444 -5.727345,3.526337 -8.591018,5.289505 0.149667,-0.110887 0.337267,-0.183624 0.449001,-0.332658 0.121036,-0.161446 0.148309,-0.37532 0.222461,-0.562981 0.293968,-1.534707 0.844749,-2.848998 2.228988,-3.712093 0.204359,-0.193842 0.408718,-0.387681 0.613076,-0.58152 0.224005,-0.163311 0.466919,-0.303429 0.672013,-0.489937 0.203004,-0.184605 0.333933,-0.44161 0.545079,-0.616847 0.193709,-0.160766 0.436549,-0.250806 0.653732,-0.378084 10.49016,-6.147541 6.709892,-4.148754 10.819903,-6.308669 3.816358,-2.036305 11.207138,-5.564556 -5.641499,3.50216 3.585318,-2.473532 8.063082,-4.679254 11.3885,-6.730307 2.923109,-1.802916 -5.933832,3.459832 -8.910383,5.173078 -0.439082,0.252724 1.674577,-1.068369 1.302509,-0.783215 4.220586,-3.029833 8.725069,-5.703604 13.636188,-7.368672 1.704372,-0.593799 3.407532,-1.18065 5.139252,-1.691444 2.39774,-0.795872 4.76921,-1.722705 7.30665,-1.967815 4.7873,-0.591783 9.61141,-0.205073 14.4234,-0.302903 5.84946,-0.0083 11.69992,-0.01984 17.54807,-0.152463 2.65767,-0.07894 5.31806,-0.1387 7.96894,-0.359974 5.27877,-0.440624 7.56992,-3.134587 -5.67367,6.096064 -0.93184,-0.187905 -2.13139,-0.201959 -3.03982,-0.260983 -2.4265,-0.15766 -4.85451,-0.292745 -7.27984,-0.468534 -4.2824,-0.243356 -8.54616,-0.590849 -12.80471,-1.119765 -7.01049,-0.563187 -14.0287,-0.460391 -21.05696,-0.350922 -1.71218,0.02148 -2.453069,0.02878 -4.071951,0.05545 -0.393462,0.0065 -1.471163,0.28697 -1.180349,0.02186 9.45562,-8.619818 4.95808,-6.664778 9.10242,-6.58127 2.06748,0.0039 4.13493,-0.0077 6.20239,0.0045 2.28228,0.0061 4.56448,0.01191 6.84654,0.05047 4.26748,0.04309 8.53797,0.07766 12.80286,-0.106865 1.18691,-0.07467 2.48625,-0.115573 3.6635,-0.338892 0.39309,-0.07457 1.49119,-0.544308 1.15463,-0.327943 -2.87947,1.851179 -5.92007,3.441264 -8.82193,5.257155 -0.17849,0.111699 0.43927,-0.01514 0.61937,-0.124251 0.13176,-0.07983 0.15922,-0.263785 0.23883,-0.395677 0.10767,-1.184352 -0.27952,-2.436325 -1.57098,-2.694215 -1.87735,-0.112831 -3.76018,-0.01963 -5.63987,-0.04023 -1.72944,-0.0016 -3.4589,-0.005 -5.18831,0.0056 -1.74078,-0.0011 -3.48164,-0.0033 -5.22221,-0.03269 -2.34462,-0.04619 -4.68755,-0.144565 -7.02513,-0.339034 -2.65626,-0.213709 -5.308556,-0.516975 -7.978969,-0.40558 -2.695614,-0.01611 -5.3912,-0.02867 -8.086867,-0.02545 -2.552846,0.0068 -5.106739,0.0034 -7.658201,0.0976 -2.012995,0.109649 -4.027773,0.284396 -5.985687,0.794666 -5.72243,1.59008 -0.279405,1.08716 7.280465,-4.752152 1.119196,-0.864476 -1.446839,-1.317384 -0.7732,-1.19344 1.718686,0.07176 3.439925,0.0092 5.15946,0.02487 1.924256,0.0026 3.848507,-0.0021 5.77274,0.0114 2.400829,0.0087 4.801521,7.94e-4 7.202342,-0.0034 2.248397,-0.006 4.496667,0.0091 6.745037,0.01971 3.53409,0.02704 7.06856,0.05081 10.60256,-1.72e-4 2.40387,-0.03841 4.80935,-0.07369 7.20859,-0.240122 2.83373,-0.218485 5.65655,-0.544677 8.48935,-0.772676 2.54851,-0.281567 5.06553,-0.774383 7.61781,-1.019337 3.77465,-0.03687 7.50391,0.812284 11.11621,1.855285 1.97826,0.705199 4.81572,1.421215 5.92508,3.434887 0.27825,0.505074 0.0884,1.186633 0.40331,1.682276 1.69144,6.522929 -2.17293,5.171927 -9.88794,9.74675 -1.68087,0.01892 -2.9202,-0.961011 -4.1293,-2.051682 -0.16628,-0.119184 -0.97079,-0.72771 -1.24888,-0.826148 -0.0882,-0.03124 -0.35936,0.07707 -0.27944,0.02829 3.10854,-1.897531 6.25888,-3.725714 9.38833,-5.588571 -0.11857,0.07902 -0.28254,0.114786 -0.35572,0.237048 -0.14501,0.242292 -0.17818,0.5359 -0.26728,0.803849 -0.31012,2.478214 -0.11228,5.01025 -0.65949,7.467489 -1.68898,4.496562 -0.37062,1.552503 -10.64569,6.668656 -0.77282,0.384797 -3.5478,-2.120519 -4.02848,-2.593848 -0.83711,-0.799595 -1.85452,-1.947543 -3.01641,-2.295097 -0.21316,-0.06376 -0.85107,0.170265 -0.66582,0.04704 9.79356,-6.514489 10.96849,-8.17744 8.33129,-4.813006 -0.27257,1.79919 -0.33177,3.618608 -0.67788,5.409099 -0.0766,0.396081 0.0529,0.940501 -0.27234,1.179198 -3.1889,2.340528 -6.6751,4.246385 -10.01265,6.369576 -0.2743,-0.0323 -0.55971,-0.01312 -0.8229,-0.09691 -1.96188,-0.624453 -3.26561,-3.528671 -4.44721,-5.000003 -1.21786,-1.550284 -2.40808,-3.173965 -3.83729,-4.541766 -0.41599,-0.398116 -0.85559,-0.774914 -1.32554,-1.107625 -0.31653,-0.224105 -1.3284,-0.316217 -1.02268,-0.554871 2.70608,-2.112492 5.82064,-3.641714 8.73096,-5.462569 -0.27785,0.127902 -0.62006,0.164661 -0.83355,0.383709 -0.2668,0.273744 -0.38133,0.664665 -0.53101,1.016389 -0.93502,2.197182 -1.12891,4.633847 -2.07233,6.830595 -0.27428,0.631846 -0.49272,1.290992 -0.82286,1.895533 -2.32866,4.264173 -7.85079,5.610757 -11.91429,7.576891 -0.41971,0.203078 -0.94983,-0.0048 -1.38965,-0.159604 -1.32703,-0.467024 -1.73954,-1.229514 -2.64886,-2.25601 -2.36045,-3.618568 -4.44991,-7.65542 -7.883502,-10.377196 -4.099296,-0.677828 -1.239057,-0.04718 8.158092,-5.555083 0.25695,-0.150604 -0.49939,0.359971 -0.64195,0.621466 -0.59301,1.087731 -0.37134,2.519799 -0.91002,3.633071 -3.33458,2.175102 -6.576365,4.499586 -10.003751,6.525307 -1.137615,0.672378 -3.434635,-3.016874 -3.890875,-3.596142 -1.923711,-2.575828 -3.689871,-5.431079 -6.564746,-7.054715 -4.318923,-0.565899 -1.384631,0.03798 7.473831,-5.372637 0.348512,-0.212868 -0.774833,0.348895 -1.024184,0.672309 -1.142902,1.482383 -0.712107,3.762983 -0.822497,5.4503 -0.0033,2.328076 -0.0021,4.655867 0.0096,6.983918 0.003,0.580704 0.461999,1.379434 0.0085,1.742119 C 79.824159,60.69984 80.551306,62.91753 79.453304,58.728874 79.076188,56.124348 78.58656,53.54158 77.798933,51.0252 c -0.130482,-0.755703 -0.1875,-1.255554 -0.409297,-1.970911 -0.02982,-0.09619 -0.21916,-0.218911 -0.133104,-0.271224 3.150007,-1.914911 6.400098,-3.660124 9.602835,-5.485485 0.111365,-0.06347 -0.250632,0.09801 -0.328605,0.199753 -0.144195,0.188153 -0.209089,0.425511 -0.313634,0.638265 -0.896893,3.444925 -0.210352,7.109182 -0.443093,10.624523 -0.0055,1.905035 -0.03002,3.810826 -0.01561,5.715855 0.0029,0.386659 0.343379,0.946761 0.02072,1.159827 -10.157399,6.707201 -9.574877,9.258401 -10.225053,4.878901 -0.319336,-4.504748 -0.479505,-9.034891 -1.126175,-13.50527 -1.257695,-4.524398 -2.470089,-0.166941 8.755239,-6.646206 0.220568,-0.127312 -0.389781,0.336092 -0.535466,0.544981 -0.537975,0.771385 -0.670417,1.381514 -0.978776,2.275591 -2.613781,6.160302 -6.708264,12.137589 -14.848609,12.237408 -0.293786,-0.19213 -0.642533,-0.319125 -0.881362,-0.57639 -1.199324,-1.291907 -0.366617,-4.188491 -0.630843,-5.819351 -0.176795,-4.565235 -0.256641,-0.793417 10.035521,-6.253642 0.05305,-0.02815 -0.02995,0.116922 -0.03478,0.176787 -0.01749,0.216948 -0.02732,0.434568 -0.03208,0.652169 -0.0079,0.35942 -0.0041,0.719 -0.0058,1.078505 -0.0019,0.385839 -0.0031,0.771681 -0.0046,1.157523 -0.0016,1.556499 -0.01543,3.115675 0.02759,4.671761 0.0076,0.276066 0.269082,0.680564 0.0354,0.827762 -3.233928,2.037096 -6.710685,3.660445 -10.066027,5.490668 0.173003,-0.645017 0.103846,-1.663406 0.111963,-2.279576 0.02387,-1.812507 0.01881,-3.625493 0.0062,-5.438042 -0.01638,-1.133544 -0.02437,-2.116696 -0.06214,-3.240151 -0.01122,-0.334071 -0.326554,-0.819497 -0.04633,-1.00171 13.580589,-8.830484 10.162614,-8.973677 9.931871,-4.523814 -0.06084,2.417472 -0.133758,4.83648 -0.09073,7.254674 0.173352,2.240087 0.865502,3.158591 3.168092,3.699402 2.818931,0.232552 5.034401,-0.06466 7.855222,-0.458896 4.503153,-0.62936 8.978416,-1.45078 13.40816,-2.478347 5.003308,-1.258274 9.880528,-2.661952 14.727198,-4.44332 1.42744,-0.524653 5.24859,-2.798776 4.25443,-1.647904 -1.60155,1.853996 -4.22171,2.498685 -6.2172,3.920058 -0.55203,0.393211 1.24109,-0.545081 1.86164,-0.817623 0.35376,0.06245 1.19317,0.521494 1.06128,0.187349 -0.13476,-0.341427 -0.71075,-0.209008 -1.07732,-0.227979 -0.91919,-0.04757 -1.84095,0.0069 -2.7611,0.02934 -4.37094,0.106879 -8.74018,0.341871 -13.114552,0.280382 -4.373123,0.03218 -8.800761,0.226679 -13.17082,-0.02461 -0.896684,-0.05156 -3.24984,0.397886 -2.678298,-0.294962 5.431396,-6.58418 5.269994,-6.355689 9.66937,-6.893232 5.672375,-0.329602 11.41473,0.01262 17.03691,-0.871993 -2.88819,2.198145 -5.66871,4.545447 -8.66456,6.594433 -0.22904,0.156644 -0.548846,-0.08975 -0.825987,-0.103463 -0.707403,-0.035 -1.416185,-0.0322 -2.124379,-0.04251 -3.467634,-0.0505 -6.935941,-0.05535 -10.403165,-0.13603 -3.894471,-0.0827 -7.796186,-0.132086 -11.680867,-0.450916 -1.219766,-0.100111 -4.203838,-0.321832 -5.516571,-0.889831 -0.574119,-0.248412 -1.012433,-0.735031 -1.51865,-1.102548 -0.0688,-0.4327 -0.558157,-1.036878 -0.206409,-1.298101 3.322069,-2.467105 7.053022,-4.330473 10.616925,-6.433177 0.616791,-0.363906 1.275492,-0.651831 1.92016,-0.963703 0.64629,-0.312658 2.55954,-1.292709 1.9523,-0.909688 -2.490309,1.570776 -5.07791,2.981749 -7.612557,4.479925 -0.481066,0.284348 0.96783,-0.558932 1.451745,-0.838401 1.00903,-0.510593 0.713348,-0.6199 1.556689,-0.391787 0.154863,0.04189 -0.312701,-0.10024 -0.472797,-0.08996 -1.418305,0.09107 -2.744788,0.68766 -4.030972,1.234041 2.74997,-1.62574 5.492578,-3.263998 8.249909,-4.877224 0.335828,-0.196482 -0.661593,0.409993 -0.984785,0.626637 -0.763963,0.512109 -1.335492,1.112372 -1.788096,1.92187 -0.133583,0.238916 -0.222949,0.499996 -0.334423,0.749993 -0.06574,0.206388 -0.131482,0.412776 -0.197223,0.619165 -0.08329,0.02872 -0.193926,0.0181 -0.24987,0.08617 -0.280421,0.341164 1.353098,-0.634045 0.493192,-0.126172 -8.723122,5.152017 -12.196083,6.853271 -8.343837,4.944263 1.524585,-1.187688 1.801273,-2.48195 1.572181,-4.364606 -0.237903,-1.644722 -0.395327,-2.489878 -1.947635,-3.296314 -1.473277,-0.835327 -3.058271,-1.396151 -4.777372,-1.288365 -2.558754,-0.01648 -5.117481,-0.03648 -7.676267,-0.04751 -1.25904,-0.0026 -1.976575,-0.0082 -3.235496,0.0058 -0.465593,0.0052 -0.93127,0.0094 -1.396654,0.02429 -0.321233,0.01027 -1.209588,0.257082 -0.962834,0.05115 8.10066,-6.760594 5.21993,-7.378766 8.923723,-6.530827 6.397757,0.65935 12.840227,0.804225 19.233126,1.526421 1.983563,0.265713 4.757095,0.497298 6.745007,1.198954 0.621234,0.219271 2.202564,0.448532 1.746914,0.924343 -6.065816,6.334162 -6.078323,6.465946 -11.128613,6.912086 -2.232311,0.342506 -4.295566,1.096592 -6.384639,1.944513 -3.774607,1.583854 -8.952315,4.857827 5.656638,-3.724717 0.677804,-0.3982 -1.359953,0.789094 -2.033167,1.195007 -0.225245,0.13581 -0.440671,0.287276 -0.661006,0.430916 -0.08388,-0.03447 -0.732372,-0.199123 -0.69274,-0.490715 0.01532,-0.112651 0.370626,-0.262514 0.272503,-0.205099 -16.334573,9.55799 -10.398056,6.904355 -7.558543,4.078512 1.438865,-1.717807 2.906213,-3.407542 4.486619,-4.998188 0,0 10.407756,-4.200901 10.407756,-4.200901 z"
       inkscape:connector-curvature="0" />
  </g>
</svg>
